ffmpeg version 4.2.4-1ubuntu0.1 Copyright (c) 2000-2020 the FFmpeg developers
  built with gcc 9 (Ubuntu 9.3.0-10ubuntu2)
  configuration: --prefix=/usr --extra-version=1ubuntu0.1 --toolchain=hardened --libdir=/usr/lib/x86_64-linux-gnu --incdir=/usr/include/x86_64-linux-gnu --arch=amd64 --enable-gpl --disable-stripping --enable-avresample --disable-filter=resample --enable-avisynth --enable-gnutls --enable-ladspa --enable-libaom --enable-libass --enable-libbluray --enable-libbs2b --enable-libcaca --enable-libcdio --enable-libcodec2 --enable-libflite --enable-libfontconfig --enable-libfreetype --enable-libfribidi --enable-libgme --enable-libgsm --enable-libjack --enable-libmp3lame --enable-libmysofa --enable-libopenjpeg --enable-libopenmpt --enable-libopus --enable-libpulse --enable-librsvg --enable-librubberband --enable-libshine --enable-libsnappy --enable-libsoxr --enable-libspeex --enable-libssh --enable-libtheora --enable-libtwolame --enable-libvidstab --enable-libvorbis --enable-libvpx --enable-libwavpack --enable-libwebp --enable-libx265 --enable-libxml2 --enable-libxvid --enable-libzmq --enable-libzvbi --enable-lv2 --enable-omx --enable-openal --enable-opencl --enable-opengl --enable-sdl2 --enable-libdc1394 --enable-libdrm --enable-libiec61883 --enable-nvenc --enable-chromaprint --enable-frei0r --enable-libx264 --enable-shared
  WARNING: library configuration mismatch
  avcodec     configuration: --prefix=/usr --extra-version=1ubuntu0.1 --toolchain=hardened --libdir=/usr/lib/x86_64-linux-gnu --incdir=/usr/include/x86_64-linux-gnu --arch=amd64 --enable-gpl --disable-stripping --enable-avresample --disable-filter=resample --enable-avisynth --enable-gnutls --enable-ladspa --enable-libaom --enable-libass --enable-libbluray --enable-libbs2b --enable-libcaca --enable-libcdio --enable-libcodec2 --enable-libflite --enable-libfontconfig --enable-libfreetype --enable-libfribidi --enable-libgme --enable-libgsm --enable-libjack --enable-libmp3lame --enable-libmysofa --enable-libopenjpeg --enable-libopenmpt --enable-libopus --enable-libpulse --enable-librsvg --enable-librubberband --enable-libshine --enable-libsnappy --enable-libsoxr --enable-libspeex --enable-libssh --enable-libtheora --enable-libtwolame --enable-libvidstab --enable-libvorbis --enable-libvpx --enable-libwavpack --enable-libwebp --enable-libx265 --enable-libxml2 --enable-libxvid --enable-libzmq --enable-libzvbi --enable-lv2 --enable-omx --enable-openal --enable-opencl --enable-opengl --enable-sdl2 --enable-libdc1394 --enable-libdrm --enable-libiec61883 --enable-nvenc --enable-chromaprint --enable-frei0r --enable-libx264 --enable-shared --enable-version3 --disable-doc --disable-programs --enable-libaribb24 --enable-liblensfun --enable-libopencore_amrnb --enable-libopencore_amrwb --enable-libtesseract --enable-libvo_amrwbenc
  libavutil      56. 31.100 / 56. 31.100
  libavcodec     58. 54.100 / 58. 54.100
  libavformat    58. 29.100 / 58. 29.100
  libavdevice    58.  8.100 / 58.  8.100
  libavfilter     7. 57.100 /  7. 57.100
  libavresample   4.  0.  0 /  4.  0.  0
  libswscale      5.  5.100 /  5.  5.100
  libswresample   3.  5.100 /  3.  5.100
  libpostproc    55.  5.100 / 55.  5.100
Input #0, image2, from './Cubo/Cubo%02d.png':
  Duration: 00:00:04.00, start: 0.000000, bitrate: N/A
    Stream #0:0: Video: png, rgb24(pc), 320x240, 25 fps, 25 tbr, 25 tbn, 25 tbc
Stream mapping:
  Stream #0:0 -> #0:0 (png (native) -> h264 (libx264))
Press [q] to stop, [?] for help
[libx264 @ 0x55873d7f6840] using cpu capabilities: MMX2 SSE2Fast LZCNT SSSE3 SSE4.2 AVX
[libx264 @ 0x55873d7f6840] profile High 4:4:4 Predictive, level 1.3, 4:4:4 8-bit
Output #0, avi, to 'cmp-functs/cub_h264_sse.avi':
  Metadata:
    ISFT            : Lavf58.29.100
    Stream #0:0: Video: h264 (libx264) (H264 / 0x34363248), yuv444p, 320x240, q=-1--1, 25 fps, 25 tbn, 25 tbc
    Metadata:
      encoder         : Lavc58.54.100 libx264
    Side data:
      cpb: bitrate max/min/avg: 0/0/0 buffer size: 0 vbv_delay: -1
frame=   57 fps=0.0 q=28.0 size=       6kB time=00:00:00.56 bitrate=  81.1kbits/s speed=1.07x    frame=   89 fps= 86 q=28.0 size=       6kB time=00:00:01.84 bitrate=  24.7kbits/s speed=1.78x    frame=  100 fps= 54 q=28.0 Lsize=     387kB time=00:00:03.92 bitrate= 809.2kbits/s speed= 2.1x    
video:379kB audio:0kB subtitle:0kB other streams:0kB global headers:0kB muxing overhead: 2.093311%
bench: utime=1.433s stime=0.012s rtime=1.865s
bench: maxrss=75272kB
[libx264 @ 0x55873d7f6840] frame I:5     Avg QP:25.33  size:  6144
[libx264 @ 0x55873d7f6840] frame P:24    Avg QP:28.08  size:  4649
[libx264 @ 0x55873d7f6840] frame B:71    Avg QP:29.58  size:  3466
[libx264 @ 0x55873d7f6840] consecutive B-frames:  5.0%  0.0%  3.0% 92.0%
[libx264 @ 0x55873d7f6840] mb I  I16..4: 20.1%  0.0% 79.9%
[libx264 @ 0x55873d7f6840] mb P  I16..4: 14.4%  0.0% 61.7%  P16..4: 10.4%  7.4%  3.3%  0.0%  0.0%    skip: 2.8%
[libx264 @ 0x55873d7f6840] mb B  I16..4:  2.8%  0.0% 22.6%  B16..8: 28.5% 22.5%  7.8%  direct: 5.3%  skip:10.5%  L0:42.0% L1:40.9% BI:17.1%
[libx264 @ 0x55873d7f6840] coded y,u,v intra: 74.6% 59.3% 62.5% inter: 35.0% 11.5% 14.6%
[libx264 @ 0x55873d7f6840] i16 v,h,dc,p: 19% 33% 19% 29%
[libx264 @ 0x55873d7f6840] i4 v,h,dc,ddl,ddr,vr,hd,vl,hu: 25% 12% 18%  9%  6%  8%  5% 12%  4%
[libx264 @ 0x55873d7f6840] Weighted P-Frames: Y:0.0% UV:0.0%
[libx264 @ 0x55873d7f6840] ref P L0: 60.3%  7.0% 18.7% 14.0%
[libx264 @ 0x55873d7f6840] ref B L0: 90.1%  7.6%  2.3%
[libx264 @ 0x55873d7f6840] ref B L1: 95.2%  4.8%
[libx264 @ 0x55873d7f6840] kb/s:776.76
